<svg xmlns="http://www.w3.org/2000/svg" viewBox="0 0 64 64" role="img" aria-label="Thaynara Silva">
  <defs>
    <linearGradient id="grad" x1="0%" y1="0%" x2="100%" y2="100%">
      <stop offset="0%" stop-color="#0EA5E9" />
      <stop offset="100%" stop-color="#0369A1" />
    </linearGradient>
  </defs>
  <rect width="64" height="64" rx="16" fill="#0F172A" />
  <circle cx="32" cy="32" r="22" fill="url(#grad)" opacity="0.9" />
  <path
    d="M22 21.5h20c1 0 1.5.6 1.5 1.6v4c0 1-.5 1.6-1.5 1.6h-7v16.8c0 .9-.6 1.5-1.6 1.5h-4.8c-1 0-1.6-.6-1.6-1.5V28.7h-7c-1 0-1.5-.6-1.5-1.6v-4c0-1 .5-1.6 1.5-1.6Z"
    fill="#F8FAFC"
  />
  <path
    d="M33 22v24.5c0 .8-.4 1.3-1.4 1.3H31c-1 0-1.4-.5-1.4-1.3V22h3.4Z"
    fill="rgba(15,23,42,0.35)"
  />
</svg>

